# xmcd
# 
# Track frame offsets:
#     150
#     23440
#     37010
#     49555
#     64362
#     72222
#     91285
#     106495
#     116722
#     121880
#     130130
#     140282
#     158972
# 
# Disc length: 2345
# 
# Revision: 14
# Processed by: cddbd v1.5.2PL0 Copyright (c) Steve Scherf et al.
# Submitted via: fre:ac v1.1beta1pre5
# 
DISCID=b009270d
DTITLE=Queen - Sheer Heart Attack (Japan)
DYEAR=1974
DGENRE=Progressive Rock
TTITLE0=Brighton Rock
TTITLE1=Killer Queen
TTITLE2=Tenement Funster
TTITLE3=Flick of the Wrist
TTITLE4=Lily of the Valley
TTITLE5=Now I'm Here
TTITLE6=In the Lap of the Gods
TTITLE7=Stone Cold Crazy
TTITLE8=Dear Friends
TTITLE9=Misfire
TTITLE10=Bring Back that Leroy Brown
TTITLE11=She Makes Me (Stormtrooper in Stilettoes)
TTITLE12=In the Lap of the Gods... Revisited
EXTD=
EXTT0=
EXTT1=
EXTT2=
EXTT3=
EXTT4=
EXTT5=
EXTT6=
EXTT7=
EXTT8=
EXTT9=
EXTT10=
EXTT11=
EXTT12=
PLAYORDER=
